<svg width="177" height="348" viewBox="0 0 177 348" fill="none" xmlns="http://www.w3.org/2000/svg">
<path d="M167.41 282.888C172.39 282.888 176.286 279.077 176.286 274.064C176.286 269.05 172.39 265.24 167.41 265.24C162.43 265.24 158.535 269.05 158.535 274.064C158.535 279.077 162.43 282.888 167.41 282.888ZM160.368 332.551H153.282C150.355 332.551 148.628 330.809 148.628 327.865V310.111C148.628 297.582 140.51 289.422 128.383 289.422C120.265 289.422 113.76 292.799 109.433 299.006C106.075 293.02 99.7993 289.422 91.8933 289.422C85.1772 289.422 79.6598 291.818 75.5437 296.504V290.73H61.4681V332.551H56.3296C53.4034 332.551 51.6759 330.809 51.6759 327.865V290.73H37.6003V321.985C37.6003 329.173 32.7263 333.859 25.4725 333.859C18.6506 333.859 14.1027 329.288 14.1027 322.206V290.73H0.00939941V326.344C0.00939941 339.191 8.34726 347.582 20.8012 347.582C28.4868 347.582 34.6653 344.425 38.8871 338.546C41.1611 343.665 46.0351 346.282 53.3946 346.282H75.5349V314.594C75.5349 307.733 80.3032 303.161 87.2308 303.161C93.7266 303.161 98.063 307.626 98.063 314.381V346.291H112.139V314.602C112.139 307.741 116.792 303.17 123.729 303.17C130.665 303.17 134.561 307.635 134.561 314.39V330.942C134.561 341.074 139.973 346.3 150.479 346.3H174.461V290.757H160.385V332.577L160.368 332.551Z" fill="#0F172A"/>
<path d="M161.328 39.4247C160.499 38.1869 159.618 36.9314 158.701 35.7113C156.172 32.3072 153.378 29.0624 150.399 26.0562C142.396 18.0015 133.115 11.6532 122.812 7.18823C121.357 6.55163 119.877 5.9504 118.405 5.41107C116.175 4.5888 113.91 3.86378 111.627 3.21835C111.503 3.18298 111.38 3.14761 111.257 3.11225C110.869 3.00615 110.481 2.90889 110.093 2.80279C108.401 2.35187 106.7 1.94515 104.972 1.60033C99.5784 0.530497 94.1138 0 88.6757 0C88.4994 0 88.3232 0 88.1469 0C87.6533 0 87.1597 0 86.675 0.00884161C81.5453 0.0618913 76.4069 0.583546 71.3213 1.60917C68.9504 2.06894 66.6148 2.65248 64.3055 3.33329C60.9122 4.29702 57.5453 5.47296 54.2842 6.85225C53.1473 7.32085 51.975 7.85135 50.6001 8.50563C47.5152 9.97334 44.4657 11.6621 41.5307 13.5188C34.9291 17.6744 28.9093 22.6964 23.6298 28.4346C21.2765 30.9633 19.0643 33.66 17.0547 36.4451C16.2703 37.5061 15.4859 38.629 14.7367 39.7784C12.6478 42.926 10.7264 46.277 9.02534 49.7517C7.07749 53.7128 5.41168 57.8772 4.08079 62.1123C3.61366 63.5889 3.1906 65.0654 2.82042 66.5066C1.48072 71.6789 0.616967 77.0016 0.237973 82.3154C0.0793242 84.4551 0 86.6124 0 88.7344V176.514C0 218.45 29.0503 253.683 67.9633 262.896C68.0162 262.914 68.0779 262.923 68.1307 262.941C68.9857 263.144 69.8406 263.33 70.6955 263.498C70.8983 263.542 71.101 263.595 71.3125 263.63C76.6713 264.709 82.0918 265.239 87.4947 265.239C87.715 265.239 87.9265 265.239 88.1381 265.239C88.2438 265.239 88.3496 265.239 88.4554 265.239C93.964 265.257 99.4991 264.736 104.964 263.63C106.524 263.33 108.057 262.958 109.591 262.56C109.838 262.499 110.084 262.428 110.331 262.366C110.913 262.207 111.486 262.048 112.059 261.88C141.338 253.516 165.047 230.174 173.262 199.484C173.561 198.379 173.835 197.274 174.082 196.186C175.545 189.759 176.285 183.136 176.285 176.514V88.7344C176.285 71.1219 171.111 54.0664 161.328 39.4247ZM36.6831 41.6263C37.1326 41.9446 37.6614 42.1126 38.2079 42.1126C39.1862 42.1126 40.0852 41.5733 40.5435 40.6979C41.1605 39.522 40.7815 38.0366 39.6621 37.2409L33.6776 32.9615C36.8505 29.7078 40.2967 26.7282 43.9545 24.0492L47.1627 31.1048C47.5946 32.0508 48.5376 32.6521 49.56 32.6521C50.1241 32.6521 50.6706 32.4752 51.1289 32.1304C52.1337 31.3966 52.4686 29.9996 51.9221 28.8148L48.379 21.0254C52.8917 18.1695 57.6952 15.7823 62.7014 13.9432L61.4587 27.2587C61.3882 27.966 61.5997 28.6557 62.0492 29.2038C62.4987 29.752 63.1333 30.088 63.8384 30.1587C65.2927 30.2914 66.5707 29.2127 66.7117 27.7627L68.166 12.1749C70.0169 11.6621 71.8766 11.2112 73.7716 10.8487C74.2387 10.7514 74.7058 10.6718 75.1818 10.5834L74.6618 11.9981C74.3973 12.7054 74.4238 13.4835 74.7323 14.1731C75.0408 14.8627 75.6048 15.3932 76.3188 15.6585C76.6272 15.7734 76.9622 15.8353 77.3059 15.8353C78.4693 15.8353 79.5358 15.0926 79.9589 13.9786L81.563 9.63736C83.7576 9.41631 85.9523 9.29253 88.1557 9.27485C89.1429 9.27485 90.1212 9.31906 91.0995 9.37211L75.7987 31.0694C75.0319 32.1658 75.1201 33.6158 76.0103 34.5265C76.5215 35.0393 77.1913 35.3311 77.8964 35.3311C78.7514 35.3311 79.5534 34.9155 80.047 34.2082L97.1722 9.92913C98.9614 10.1679 100.751 10.4596 102.522 10.8398C105.246 11.3615 107.916 12.06 110.543 12.8999L95.1186 24.8538C94.5193 25.3224 94.1315 25.9943 94.0345 26.7459C93.9376 27.4974 94.1403 28.2401 94.5986 28.8413C95.1186 29.5133 95.8942 29.92 96.7404 29.9465C97.4014 29.9819 98.0448 29.7609 98.556 29.363L116.809 15.2076C128.699 20.2296 139.267 28.3462 147.508 38.4433L105.916 45.5431C104.391 45.8084 103.351 47.2849 103.606 48.8234C103.835 50.1938 105.008 51.1929 106.391 51.1929C106.559 51.1929 106.718 51.1841 106.867 51.1487L151.368 43.5449C159.019 54.5439 164.043 67.4173 165.321 80.9626C165.594 84.6407 165.735 88.3188 165.797 92.0058L105.166 69.3448C104.417 69.0707 103.589 69.1149 102.875 69.4862C102.17 69.8576 101.641 70.5207 101.438 71.2987C101.077 72.6869 101.896 74.19 103.298 74.7116L165.841 98.0888C165.841 106.824 165.585 115.569 165.726 124.26C165.752 127.027 165.797 129.804 165.849 132.589C165.797 135.383 165.752 138.159 165.726 140.918C165.55 151.598 165.99 162.341 165.797 173.057C160.006 160.626 150.055 150.272 137.61 144.18L92.686 89.5744C91.6989 88.3631 89.9185 88.1951 88.7022 89.1942C88.1204 89.6805 87.7591 90.3701 87.6886 91.1305C87.6181 91.8909 87.8472 92.6247 88.332 93.1994L126.981 140.193C121.948 138.84 116.748 138.15 111.495 138.15C99.9398 138.15 88.852 142.279 80.0823 149.812L71.8237 100.83C71.7003 100.078 71.2949 99.4239 70.6779 98.9818C70.061 98.5397 69.3118 98.3718 68.5626 98.4955C67.029 98.7608 65.989 100.228 66.2446 101.776L75.1641 154.684C67.3287 163.614 63.0275 175.055 63.0275 186.947C63.0275 208.768 80.6551 226.513 102.328 226.513C119.956 226.513 134.296 212.075 134.296 194.33C134.296 179.838 122.591 168.052 108.198 168.052C96.3966 168.052 86.7896 177.716 86.7896 189.608C86.7896 199.414 94.7132 207.38 104.444 207.38C111.944 207.38 118.202 201.721 119.004 194.215C119.075 193.596 118.872 192.968 118.449 192.5C118.026 192.022 117.409 191.748 116.774 191.748H115.954C114.826 191.748 113.874 192.614 113.733 193.755C113.169 198.494 109.177 202.066 104.435 202.066C97.6129 202.066 92.0602 196.478 92.0602 189.608C92.0602 180.652 99.2964 173.366 108.189 173.366C119.674 173.366 129.008 182.774 129.008 194.33C129.008 209.148 117.039 221.199 102.319 221.199C83.5549 221.199 68.2982 205.833 68.2982 186.947C68.2982 177.106 71.4976 167.814 77.5527 160.077C78.5751 158.778 79.668 157.531 80.805 156.364C88.993 148.044 99.8869 143.464 111.486 143.464C119.216 143.464 126.69 145.064 133.688 148.221C134.913 148.769 136.103 149.361 137.231 149.971C151.633 157.752 161.68 171.483 164.959 187.203C160.517 219.953 134.384 248.228 102.496 254.364C97.7539 255.381 92.9416 255.894 88.1204 255.929C83.2993 255.894 78.487 255.381 73.7451 254.364C40.8961 248.043 14.155 218.229 10.9379 184.233C10.9115 183.826 10.8939 183.41 10.8674 183.004C26.4855 181.969 31.1832 184.542 40.2527 196.982C43.3639 201.253 46.1667 205.373 48.8726 209.352C62.6309 229.581 73.4983 245.567 101.244 245.567C128.99 245.567 149.711 223.684 149.711 196.779C149.711 174.967 132.084 157.213 110.411 157.213C92.783 157.213 78.4429 171.651 78.4429 189.396C78.4429 203.888 90.1564 215.673 104.549 215.673C116.351 215.673 125.958 206.001 125.958 194.118C125.958 184.321 118.035 176.346 108.304 176.346C100.804 176.346 94.5369 182.005 93.7348 189.511C93.6643 190.13 93.8671 190.758 94.2901 191.218C94.7132 191.695 95.3301 191.969 95.9647 191.969H96.7844C97.9126 191.969 98.8645 191.103 99.0055 189.962C99.5696 185.223 103.571 181.651 108.313 181.651C115.135 181.651 120.687 187.239 120.687 194.109C120.687 203.065 113.451 210.351 104.558 210.351C93.0738 210.351 83.7312 200.943 83.7312 189.387C83.7312 174.569 95.7003 162.518 110.419 162.518C129.184 162.518 144.441 177.884 144.441 196.77C144.441 220.74 125.068 240.244 101.253 240.244C77.4381 240.244 66.6148 226.027 53.2354 206.346C50.4943 202.314 47.6651 198.149 44.5097 193.835C34.4444 180.033 27.8869 176.638 10.5942 177.699C10.1359 165.435 10.7264 153.137 10.5237 140.909C10.4972 138.15 10.4532 135.374 10.4003 132.58C10.4532 129.795 10.4972 127.019 10.5237 124.251C10.6471 116.921 10.4796 109.565 10.4179 102.2L28.0543 87.4966C29.253 86.4975 29.4205 84.7026 28.4245 83.4825C27.4286 82.2889 25.6394 82.1209 24.4407 83.1111L10.4179 94.8086C10.4532 90.6177 10.5766 86.4356 10.8498 82.2623L36.5156 70.4146C37.7848 69.831 38.437 68.3722 38.0051 67.099C37.7583 66.3917 37.2295 65.8081 36.5509 65.5163C35.8634 65.2246 35.0878 65.2334 34.4091 65.5429L11.5725 76.0821C12.0661 73.0317 12.7448 70.0167 13.6085 67.0636L16.8784 66.5066C17.6276 66.374 18.2798 65.9673 18.7117 65.3395C19.1436 64.7206 19.3111 63.9691 19.1877 63.2264C19.0643 62.4748 18.6588 61.8205 18.0419 61.3785C17.4249 60.9364 16.6757 60.7684 15.9354 60.8922L15.6621 60.9364C16.4818 58.7879 17.3985 56.6747 18.3944 54.6058L32.7962 55.9674C33.6423 56.047 34.4444 55.7198 34.9996 55.1009C35.5108 54.5351 35.7488 53.81 35.6695 53.0408C35.5461 51.7853 34.5149 50.7862 33.2104 50.6624L21.0914 49.513C23.6739 45.0215 26.6794 40.7775 30.0463 36.8518L36.6566 41.5733L36.6831 41.6263ZM61.4499 78.2659C62.0316 78.2659 62.6045 78.2394 63.1862 78.1952C73.8597 77.3553 82.5501 68.6197 83.4227 57.886C83.9515 51.3609 81.6159 44.9684 77.0327 40.3443C72.4495 35.7201 66.1036 33.3859 59.6254 33.8899C48.9607 34.7475 40.2791 43.4919 39.4242 54.2256C38.913 60.7419 41.2398 67.1255 45.8142 71.732C49.9743 75.9317 55.5975 78.2571 61.4499 78.2571V78.2659ZM44.7124 54.3052C45.5057 46.3654 51.8076 40.026 59.6959 39.2302C60.2688 39.1683 60.8417 39.1418 61.4058 39.1418C65.8568 39.1418 70.1138 40.9013 73.2868 44.0931C76.8652 47.7005 78.6368 52.6872 78.1344 57.7799C77.35 65.7285 71.0393 72.0768 63.1421 72.8726C58.083 73.3765 53.1296 71.5994 49.5512 68.0008C45.9728 64.3935 44.2101 59.4068 44.7213 54.314L44.7124 54.3052ZM61.3882 84.8353L57.1664 130.095C57.0341 131.466 55.906 132.5 54.5398 132.5C54.4605 132.5 54.3812 132.5 54.2931 132.492C52.8388 132.35 51.7723 131.059 51.9133 129.6L56.1351 84.3401C56.2673 82.8813 57.5542 81.8114 59.0084 81.944C60.4539 82.0855 61.5292 83.3764 61.3882 84.8353ZM16.6581 114.95L42.791 77.8769C43.1965 77.3022 43.8046 76.9132 44.5009 76.7982C45.1972 76.6833 45.8935 76.8424 46.4664 77.2492C47.6563 78.0979 47.9295 79.7602 47.0922 80.9538L20.9592 118.018C20.4657 118.716 19.6636 119.132 18.8087 119.132C18.2622 119.132 17.7334 118.964 17.2839 118.646C16.094 117.797 15.8208 116.135 16.6581 114.941V114.95ZM84.7183 44.6767C84.4451 43.4654 85.0885 42.201 86.2607 41.6617L127.236 22.7495C127.915 22.44 128.69 22.4312 129.378 22.7229C130.065 23.0147 130.594 23.5983 130.832 24.3056C131.264 25.5788 130.612 27.0288 129.343 27.6212L88.3849 46.5246C88.0323 46.6837 87.6621 46.7633 87.2831 46.7633C86.0404 46.7633 84.9827 45.9056 84.7007 44.6767H84.7183ZM90.0066 56.0823L134.887 60.3263C136.191 60.4501 137.222 61.4492 137.346 62.7047C137.416 63.4739 137.187 64.2078 136.676 64.7648C136.173 65.3218 135.459 65.6401 134.719 65.6401C134.64 65.6401 134.56 65.6401 134.472 65.6313L89.6188 61.3873C88.2262 61.2547 87.1245 60.0964 87.1157 58.7437C87.1157 57.9921 87.4242 57.276 87.9706 56.772C88.5171 56.268 89.2574 56.0204 89.9978 56.0823H90.0066ZM84.0661 70.0432C84.7888 69.8841 85.5556 70.0432 86.1638 70.4676L122.917 96.7272C124.037 97.5318 124.416 99.0172 123.79 100.184C123.332 101.06 122.433 101.599 121.454 101.599C120.908 101.599 120.379 101.431 119.929 101.104L83.1847 74.8531C82.0477 74.0396 81.6776 72.4924 82.3386 71.3164C82.7088 70.6622 83.3346 70.1935 84.0661 70.0344V70.0432ZM75.6842 80.9892L94.4576 122.2C95.0745 123.553 94.5457 125.162 93.2853 125.79C92.9152 125.975 92.5185 126.064 92.1131 126.064C91.0819 126.064 90.1388 125.454 89.7157 124.516L70.9335 83.2791C70.3783 82.059 70.7572 80.6001 71.8149 79.8839C72.4671 79.4419 73.2604 79.3181 74.0095 79.5303C74.7587 79.7425 75.3669 80.273 75.693 80.9803L75.6842 80.9892ZM48.1498 100.193L23.004 168.388C22.5898 169.503 21.5321 170.245 20.3511 170.245C20.0162 170.245 19.6812 170.183 19.3639 170.068C17.9008 169.52 17.1605 167.885 17.6981 166.408L42.888 98.1154C43.1612 97.3638 43.7429 96.7626 44.4833 96.462C45.2236 96.1614 46.061 96.1967 46.7837 96.5504C48.0705 97.1781 48.6698 98.7873 48.1498 100.193Z" fill="#0F172A"/>
</svg>
