<svg width="180" height="41" viewBox="0 0 180 41" fill="none" xmlns="http://www.w3.org/2000/svg">
<g clip-path="url(#clip0_569_16875)">
<path d="M24.9253 6.14591C24.7973 5.95527 24.6611 5.7619 24.5195 5.57398C24.1287 5.04971 23.697 4.54995 23.2367 4.08696C22.0003 2.84641 20.5663 1.86869 18.9745 1.18101C18.7498 1.08296 18.521 0.990364 18.2936 0.907298C17.9491 0.780656 17.5991 0.668994 17.2464 0.569587C17.2274 0.56414 17.2083 0.558693 17.1892 0.553246C17.1293 0.536905 17.0694 0.521926 17.0095 0.505585C16.748 0.436136 16.4852 0.373496 16.2183 0.320388C15.3849 0.155618 14.5407 0.0739136 13.7005 0.0739136C13.6732 0.0739136 13.646 0.0739136 13.6188 0.0739136C13.5425 0.0739136 13.4662 0.0739136 13.3913 0.0752753C12.5988 0.0834457 11.8049 0.163788 11.0192 0.32175C10.6529 0.392561 10.292 0.482435 9.93525 0.587289C9.41098 0.735719 8.8908 0.91683 8.38695 1.12926C8.21129 1.20143 8.03018 1.28314 7.81774 1.38391C7.34114 1.60996 6.86997 1.87005 6.41651 2.15601C5.39657 2.79603 4.4665 3.5695 3.65082 4.45327C3.28724 4.84272 2.94544 5.25805 2.63497 5.687C2.51377 5.85041 2.39258 6.02335 2.27683 6.20038C1.9541 6.68516 1.65724 7.20126 1.39442 7.73642C1.09348 8.34648 0.836108 8.98786 0.630485 9.64013C0.558313 9.86754 0.49295 10.095 0.435757 10.3169C0.228772 11.1135 0.0953217 11.9333 0.036767 12.7517C0.0122556 13.0812 0 13.4135 0 13.7403V27.2597C0 33.7184 4.48829 39.1449 10.5004 40.5639C10.5085 40.5666 10.5181 40.568 10.5262 40.5707C10.6583 40.602 10.7904 40.6306 10.9225 40.6565C10.9538 40.6633 10.9852 40.6714 11.0178 40.6769C11.8458 40.843 12.6832 40.9247 13.518 40.9247C13.552 40.9247 13.5847 40.9247 13.6174 40.9247C13.6337 40.9247 13.6501 40.9247 13.6664 40.9247C14.5175 40.9274 15.3727 40.8471 16.217 40.6769C16.458 40.6306 16.6949 40.5734 16.9319 40.5121C16.97 40.5026 17.0081 40.4917 17.0463 40.4822C17.1361 40.4576 17.2246 40.4331 17.3132 40.4073C21.8368 39.1191 25.4999 35.5241 26.7691 30.7975C26.8154 30.6273 26.8576 30.457 26.8957 30.2895C27.1218 29.2996 27.2361 28.2796 27.2361 27.2597V13.7403C27.2361 11.0277 26.4368 8.40095 24.9253 6.14591ZM5.66756 6.48498C5.73701 6.534 5.81871 6.55988 5.90314 6.55988C6.05429 6.55988 6.19319 6.47681 6.264 6.342C6.35932 6.16089 6.30077 5.93212 6.12783 5.80956L5.20321 5.15048C5.69343 4.64936 6.22587 4.19045 6.79099 3.77784L7.28667 4.86451C7.35339 5.01022 7.4991 5.10282 7.65706 5.10282C7.74421 5.10282 7.82864 5.07558 7.89945 5.02247C8.05469 4.90945 8.10643 4.69429 8.02201 4.51182L7.47459 3.31213C8.1718 2.87229 8.91394 2.50462 9.68741 2.22138L9.49541 4.27216C9.48451 4.38109 9.5172 4.48731 9.58664 4.57174C9.65609 4.65617 9.75414 4.70791 9.86308 4.71881C10.0878 4.73923 10.2852 4.5731 10.307 4.34977L10.5317 1.94903C10.8177 1.87005 11.105 1.8006 11.3978 1.74477C11.4699 1.72979 11.5421 1.71753 11.6156 1.70392L11.5353 1.92179C11.4944 2.03073 11.4985 2.15057 11.5462 2.25678C11.5938 2.363 11.681 2.4447 11.7913 2.48555C11.839 2.50326 11.8907 2.51279 11.9438 2.51279C12.1236 2.51279 12.2883 2.3984 12.3537 2.22682L12.6015 1.55821C12.9406 1.52417 13.2797 1.5051 13.6201 1.50238C13.7726 1.50238 13.9238 1.50919 14.0749 1.51736L11.711 4.85906C11.5925 5.02792 11.6061 5.25125 11.7436 5.39151C11.8226 5.47049 11.9261 5.51542 12.0351 5.51542C12.1671 5.51542 12.2911 5.45142 12.3673 5.34248L15.0132 1.60315C15.2896 1.63991 15.566 1.68485 15.8398 1.74341C16.2605 1.82375 16.6731 1.93133 17.0789 2.06069L14.6959 3.90176C14.6033 3.97393 14.5434 4.07743 14.5284 4.19317C14.5134 4.30892 14.5447 4.42331 14.6155 4.51591C14.6959 4.6194 14.8157 4.68204 14.9464 4.68612C15.0486 4.69157 15.148 4.65753 15.227 4.59625L18.0471 2.41611C19.8841 3.18957 21.5168 4.43965 22.7901 5.99476L16.364 7.08823C16.1284 7.12908 15.9678 7.35649 16.0072 7.59344C16.0426 7.80451 16.2238 7.95838 16.4376 7.95838C16.4634 7.95838 16.4879 7.95702 16.5111 7.95157L23.3865 6.78048C24.5685 8.47448 25.3447 10.4572 25.5421 12.5434C25.5844 13.1098 25.6061 13.6763 25.6157 14.2442L16.2483 10.754C16.1325 10.7118 16.0045 10.7186 15.8942 10.7758C15.7853 10.833 15.7036 10.9351 15.6723 11.055C15.6164 11.2688 15.7431 11.5003 15.9596 11.5806L25.6225 15.181C25.6225 16.5264 25.583 17.8732 25.6048 19.2118C25.6089 19.638 25.6157 20.0656 25.6238 20.4946C25.6157 20.9249 25.6089 21.3525 25.6048 21.7773C25.5775 23.4223 25.6456 25.0768 25.6157 26.7272C24.721 24.8126 23.1836 23.218 21.2608 22.2798L14.32 13.8697C14.1675 13.6831 13.8925 13.6573 13.7045 13.8111C13.6147 13.886 13.5588 13.9922 13.5479 14.1094C13.5371 14.2265 13.5725 14.3395 13.6474 14.428L19.6186 21.6656C18.841 21.4573 18.0376 21.3511 17.226 21.3511C15.4408 21.3511 13.7277 21.987 12.3728 23.1472L11.0968 15.6032C11.0777 15.4874 11.0151 15.3867 10.9198 15.3186C10.8245 15.2505 10.7087 15.2246 10.593 15.2437C10.356 15.2845 10.1953 15.5106 10.2348 15.7489L11.6129 23.8975C10.4023 25.2729 9.7378 27.035 9.7378 28.8665C9.7378 32.2273 12.4613 34.9603 15.8098 34.9603C18.5333 34.9603 20.7488 32.7366 20.7488 30.0036C20.7488 27.7717 18.9404 25.9565 16.7167 25.9565C14.8933 25.9565 13.409 27.4449 13.409 29.2764C13.409 30.7866 14.6332 32.0135 16.1366 32.0135C17.2954 32.0135 18.2623 31.142 18.3862 29.9859C18.3971 29.8906 18.3658 29.7939 18.3004 29.7217C18.235 29.6482 18.1397 29.606 18.0417 29.606H17.915C17.7407 29.606 17.5937 29.7394 17.5719 29.9151C17.4847 30.645 16.8679 31.1951 16.1352 31.1951C15.0813 31.1951 14.2234 30.3345 14.2234 29.2764C14.2234 27.897 15.3414 26.7749 16.7153 26.7749C18.4897 26.7749 19.9318 28.2238 19.9318 30.0036C19.9318 32.2859 18.0825 34.1419 15.8084 34.1419C12.9093 34.1419 10.5521 31.7752 10.5521 28.8665C10.5521 27.3509 11.0464 25.9197 11.9819 24.7282C12.1399 24.528 12.3088 24.336 12.4844 24.1563C13.7495 22.8749 15.4326 22.1695 17.2246 22.1695C18.4189 22.1695 19.5736 22.416 20.6549 22.9021C20.8441 22.9865 21.028 23.0778 21.2023 23.1717C23.4274 24.3701 24.9797 26.4848 25.4863 28.906C24.8 33.9499 20.7624 38.3047 15.8357 39.2498C15.103 39.4064 14.3595 39.4854 13.6147 39.4908C12.8698 39.4854 12.1263 39.4064 11.3937 39.2498C6.31847 38.2761 2.18695 33.6844 1.68992 28.4485C1.68583 28.3858 1.68311 28.3218 1.67902 28.2592C4.09203 28.0999 4.81783 28.4961 6.21906 30.4121C6.69976 31.0698 7.13279 31.7044 7.55084 32.3172C9.67652 35.4328 11.3555 37.8949 15.6423 37.8949C19.9291 37.8949 23.1305 34.5246 23.1305 30.3808C23.1305 27.0214 20.407 24.287 17.0585 24.287C14.335 24.287 12.1195 26.5107 12.1195 29.2437C12.1195 31.4756 13.9292 33.2908 16.153 33.2908C17.9763 33.2908 19.4606 31.8011 19.4606 29.9709C19.4606 28.4621 18.2364 27.2338 16.7331 27.2338C15.5742 27.2338 14.606 28.1053 14.4821 29.2614C14.4712 29.3568 14.5025 29.4534 14.5679 29.5242C14.6332 29.5978 14.7286 29.64 14.8266 29.64H14.9533C15.1276 29.64 15.2746 29.5065 15.2964 29.3309C15.3836 28.601 16.0018 28.0508 16.7344 28.0508C17.7884 28.0508 18.6463 28.9115 18.6463 29.9695C18.6463 31.349 17.5283 32.4711 16.1543 32.4711C14.38 32.4711 12.9365 31.0222 12.9365 29.2424C12.9365 26.9601 14.7858 25.104 17.0599 25.104C19.959 25.104 22.3162 27.4707 22.3162 30.3794C22.3162 34.0711 19.3231 37.0751 15.6437 37.0751C11.9642 37.0751 10.292 34.8854 8.2249 31.8542C7.8014 31.2332 7.36429 30.5918 6.87678 29.9273C5.32168 27.8016 4.30854 27.2787 1.63681 27.4421C1.566 25.5534 1.65724 23.6592 1.62592 21.776C1.62183 21.3511 1.61502 20.9235 1.60685 20.4932C1.61502 20.0642 1.62183 19.6367 1.62592 19.2104C1.64498 18.0816 1.61911 16.9486 1.60958 15.8143L4.33442 13.5497C4.51961 13.3958 4.54549 13.1194 4.39161 12.9315C4.23773 12.7476 3.9613 12.7217 3.7761 12.8743L1.60958 14.6758C1.61502 14.0304 1.63409 13.3863 1.6763 12.7435L5.64168 10.9188C5.83778 10.8289 5.93854 10.6042 5.87182 10.4082C5.83369 10.2992 5.75199 10.2093 5.64713 10.1644C5.54092 10.1195 5.42108 10.1208 5.31623 10.1685L1.78796 11.7917C1.86422 11.3219 1.96907 10.8575 2.10253 10.4027L2.60773 10.3169C2.72348 10.2965 2.82425 10.2338 2.89097 10.1372C2.9577 10.0418 2.98357 9.9261 2.96451 9.81171C2.94544 9.69596 2.8828 9.59519 2.78748 9.52711C2.69216 9.45902 2.57641 9.43315 2.46202 9.45221L2.41981 9.45902C2.54645 9.12812 2.68807 8.80266 2.84195 8.48401L5.06703 8.69372C5.19776 8.70598 5.32168 8.65559 5.40747 8.56027C5.48645 8.47312 5.52321 8.36146 5.51096 8.24299C5.49189 8.04962 5.33257 7.89574 5.13103 7.87668L3.25864 7.69965C3.65763 7.00789 4.12198 6.35425 4.64217 5.74964L5.66347 6.47681L5.66756 6.48498ZM9.49405 12.128C9.58392 12.128 9.67243 12.1239 9.76231 12.1171C11.4114 11.9878 12.754 10.6424 12.8889 8.98922C12.9706 7.98426 12.6097 6.99972 11.9016 6.28753C11.1935 5.57534 10.213 5.21584 9.21217 5.29346C7.56446 5.42555 6.22315 6.77231 6.09106 8.42546C6.01208 9.42906 6.37158 10.4122 7.07832 11.1217C7.72106 11.7685 8.58985 12.1267 9.49405 12.1267V12.128ZM6.9081 8.43772C7.03066 7.21487 8.0043 6.23851 9.22306 6.11595C9.31157 6.10642 9.40009 6.10233 9.48724 6.10233C10.1749 6.10233 10.8326 6.37332 11.3229 6.86491C11.8757 7.4205 12.1494 8.18852 12.0718 8.97288C11.9506 10.1971 10.9756 11.1748 9.7555 11.2974C8.97386 11.375 8.20856 11.1013 7.6557 10.5471C7.10283 9.99146 6.83048 9.22344 6.90946 8.43908L6.9081 8.43772ZM9.48451 13.1398L8.83224 20.1105C8.81181 20.3216 8.63751 20.4809 8.42644 20.4809C8.41419 20.4809 8.40193 20.4809 8.38831 20.4796C8.16363 20.4578 7.99886 20.259 8.02064 20.0343L8.67292 13.0635C8.69334 12.8389 8.89216 12.6741 9.11684 12.6945C9.34017 12.7163 9.5063 12.9151 9.48451 13.1398ZM2.57369 17.7779L6.61124 12.0681C6.67388 11.9796 6.76784 11.9197 6.87542 11.902C6.983 11.8843 7.09058 11.9088 7.17909 11.9714C7.36292 12.1022 7.40514 12.3582 7.27577 12.542L3.23822 18.2504C3.16196 18.358 3.03804 18.422 2.90595 18.422C2.82152 18.422 2.73982 18.3961 2.67037 18.3471C2.48654 18.2164 2.44432 17.9604 2.57369 17.7765V17.7779ZM13.089 6.95478C13.0468 6.76822 13.1462 6.57349 13.3273 6.49043L19.6581 3.57767C19.7629 3.53001 19.8828 3.52865 19.989 3.57358C20.0952 3.61852 20.1769 3.7084 20.2137 3.81733C20.2804 4.01343 20.1796 4.23675 19.9835 4.32799L13.6555 7.23939C13.6011 7.2639 13.5439 7.27615 13.4853 7.27615C13.2933 7.27615 13.1299 7.14406 13.0863 6.95478H13.089ZM13.9061 8.71143L20.8401 9.36506C21.0416 9.38412 21.2009 9.538 21.22 9.73137C21.2309 9.84984 21.1955 9.96286 21.1165 10.0487C21.0389 10.1344 20.9286 10.1835 20.8142 10.1835C20.8019 10.1835 20.7897 10.1835 20.7761 10.1821L13.8462 9.52847C13.631 9.50804 13.4608 9.32966 13.4594 9.12131C13.4594 9.00556 13.5071 8.89526 13.5915 8.81764C13.6759 8.74002 13.7903 8.70189 13.9047 8.71143H13.9061ZM12.9883 10.8616C13.0999 10.8371 13.2184 10.8616 13.3124 10.927L18.9908 14.9713C19.1638 15.0953 19.2223 15.324 19.1256 15.5038C19.0548 15.6386 18.9159 15.7217 18.7648 15.7217C18.6803 15.7217 18.5986 15.6958 18.5292 15.6454L12.8521 11.6024C12.6764 11.4771 12.6192 11.2388 12.7214 11.0577C12.7786 10.9569 12.8752 10.8848 12.9883 10.8602V10.8616ZM11.6933 12.5474L14.5938 18.8945C14.6891 19.1029 14.6074 19.3507 14.4126 19.4474C14.3555 19.476 14.2942 19.4896 14.2315 19.4896C14.0722 19.4896 13.9265 19.3956 13.8611 19.2513L10.9593 12.9001C10.8735 12.7122 10.932 12.4875 11.0955 12.3772C11.1962 12.3091 11.3188 12.2901 11.4345 12.3228C11.5503 12.3554 11.6442 12.4371 11.6946 12.5461L11.6933 12.5474ZM7.43918 15.5051L3.55414 26.0082C3.49014 26.1798 3.32673 26.2942 3.14426 26.2942C3.09251 26.2942 3.04076 26.2847 2.99174 26.267C2.76569 26.1825 2.65131 25.9306 2.73437 25.7032L6.62622 15.1851C6.66844 15.0694 6.75831 14.9768 6.8727 14.9305C6.98708 14.8842 7.11645 14.8896 7.22811 14.9441C7.42693 15.0408 7.51952 15.2886 7.43918 15.5051Z" fill="#F8FAFC"/>
</g>
<g clip-path="url(#clip1_569_16875)">
<path d="M39.333 35.7393H40.5094L41.7096 39.4848L42.903 35.7393H43.8788L45.096 39.4913L45.8304 37.1627C46.0242 36.533 46.1262 36.1525 46.0412 35.7393H47.1326C47.2244 36.1886 47.102 36.6675 46.83 37.4546L45.6128 40.9082H44.535L43.3824 37.3201L42.2298 40.9082H41.152L39.333 35.7393ZM51.5016 39.0059C51.5016 37.858 50.587 36.9987 49.38 36.9987C48.173 36.9987 47.2584 37.8613 47.2584 38.9994C47.2584 40.1374 48.173 41 49.397 41C50.3558 41 51.1378 40.4851 51.4404 39.7275H50.349C50.179 39.9734 49.822 40.1538 49.4106 40.1538C48.87 40.1538 48.4654 39.8324 48.3328 39.3372H51.471C51.4948 39.2486 51.5016 39.1043 51.5016 39.0092V39.0059ZM48.343 38.6222C48.4824 38.1499 48.87 37.8449 49.38 37.8449C49.89 37.8449 50.2946 38.1597 50.417 38.6222H48.3396H48.343ZM54.9322 39.9636C54.6228 39.9636 54.344 39.8816 54.0958 39.7242C54.701 39.0354 55.0478 38.1499 55.0478 37.2513C55.0478 36.0968 54.4664 35.4244 53.5756 35.4244C52.6848 35.4244 52.0252 36.1657 52.0252 37.4972C52.0252 38.3729 52.2564 39.1535 52.6678 39.7373C52.4502 39.8947 52.2122 40.0226 51.9572 40.1276L52.3448 40.9049C52.7018 40.7868 53.0248 40.613 53.3206 40.4096C53.7558 40.7245 54.2794 40.9049 54.8778 40.9049H55.1736V39.9603H54.9356L54.9322 39.9636ZM53.4294 38.9895C53.1982 38.5632 53.0656 38.022 53.0656 37.4316C53.0656 36.7068 53.2594 36.369 53.562 36.369C53.8408 36.369 54.0108 36.6773 54.0108 37.2545C54.0108 37.8842 53.8034 38.4844 53.4294 38.9928V38.9895ZM58.5566 39.9636C58.2472 39.9636 57.9684 39.8816 57.7202 39.7242C58.3254 39.0354 58.6722 38.1499 58.6722 37.2513C58.6722 36.0968 58.0908 35.4244 57.2 35.4244C56.3092 35.4244 55.6496 36.1657 55.6496 37.4972C55.6496 38.3729 55.8808 39.1535 56.2922 39.7373C56.0746 39.8947 55.8366 40.0226 55.5782 40.1276L55.9658 40.9049C56.3228 40.7868 56.6458 40.613 56.9416 40.4096C57.3768 40.7245 57.9038 40.9049 58.4988 40.9049H58.7946V39.9603H58.5532L58.5566 39.9636ZM57.0538 38.9895C56.8226 38.5632 56.69 38.022 56.69 37.4316C56.69 36.7068 56.8838 36.369 57.1864 36.369C57.4652 36.369 57.6352 36.6773 57.6352 37.2545C57.6352 37.8842 57.4244 38.4844 57.0538 38.9928V38.9895ZM59.4474 37.0873H60.4538V37.5136C60.7632 37.1758 61.1984 36.9954 61.7084 36.9954C62.6366 36.9954 63.2486 37.5792 63.2486 38.4779V39.6389C63.2486 39.8423 63.371 39.9603 63.5818 39.9603H63.6668V40.9049H63.3812C62.6298 40.9049 62.2422 40.5441 62.2422 39.8488V38.7927C62.2422 38.2745 61.9022 37.94 61.382 37.94C60.8244 37.94 60.4538 38.2844 60.4538 38.8091V40.9082H59.4474V37.0873ZM68.2466 39.0059C68.2466 37.858 67.332 36.9987 66.125 36.9987C64.918 36.9987 64.0034 37.8613 64.0034 38.9994C64.0034 40.1374 64.918 41 66.1386 41C67.1008 41 67.8828 40.4851 68.182 39.7275H67.0906C66.9206 39.9734 66.5636 40.1538 66.1556 40.1538C65.615 40.1538 65.2104 39.8324 65.0778 39.3372H68.216C68.2398 39.2486 68.2466 39.1043 68.2466 39.0092V39.0059ZM65.088 38.6222C65.2274 38.1499 65.615 37.8449 66.125 37.8449C66.635 37.8449 67.0396 38.1597 67.162 38.6222H65.088ZM71.0346 37.0873H69.882L68.1786 40.9082H69.2156L69.44 40.3834C69.797 40.7573 70.3444 40.9967 70.9666 40.9967C71.9798 40.9967 72.602 40.3605 72.602 39.4388C72.602 38.0614 71.2148 38.0745 71.038 37.0873H71.0346ZM70.7728 40.0522C70.3682 40.0522 69.9976 39.8652 69.7902 39.5799L70.4396 38.0974C70.8102 38.6976 71.5616 38.8682 71.5616 39.4159C71.5616 39.8062 71.2454 40.0522 70.7728 40.0522ZM75.4648 37.0873H74.3122L72.6088 40.9082H73.6458L73.8702 40.3834C74.2272 40.7573 74.7746 40.9967 75.3968 40.9967C76.41 40.9967 77.0322 40.3605 77.0322 39.4388C77.0322 38.0614 75.645 38.0745 75.4682 37.0873H75.4648ZM75.203 40.0522C74.7984 40.0522 74.4278 39.8652 74.2204 39.5799L74.8698 38.0974C75.2404 38.6976 75.9918 38.8682 75.9918 39.4159C75.9918 39.8062 75.6756 40.0522 75.203 40.0522ZM79.2218 38.3237C79.2218 36.8019 80.4288 35.6507 82.0404 35.6507C83.397 35.6507 84.4816 36.4904 84.7264 37.6645H83.5942C83.3766 37.0578 82.7646 36.6445 82.037 36.6445C81.0544 36.6445 80.3098 37.3628 80.3098 38.3237C80.3098 39.2847 81.0544 40.003 82.037 40.003C82.7646 40.003 83.3766 39.5897 83.5942 38.983H84.7264C84.4782 40.1604 83.3936 40.9967 82.0404 40.9967C80.4288 40.9967 79.2218 39.8423 79.2218 38.3237ZM89.4864 39.0059C89.4864 37.858 88.5718 36.9987 87.3648 36.9987C86.1578 36.9987 85.2432 37.8613 85.2432 38.9994C85.2432 40.1374 86.1578 41 87.3818 41C88.3406 41 89.1226 40.4851 89.4252 39.7275H88.3338C88.1638 39.9734 87.8068 40.1538 87.3954 40.1538C86.8548 40.1538 86.4502 39.8324 86.3176 39.3372H89.4558C89.4796 39.2486 89.4864 39.1043 89.4864 39.0092V39.0059ZM86.3244 38.6222C86.4638 38.1499 86.8514 37.8449 87.3614 37.8449C87.8714 37.8449 88.276 38.1597 88.3984 38.6222H86.321H86.3244ZM90.1902 37.0873H91.1966V37.5136C91.506 37.1758 91.9412 36.9954 92.4512 36.9954C93.3794 36.9954 93.9914 37.5792 93.9914 38.4779V39.6389C93.9914 39.8423 94.1138 39.9603 94.3246 39.9603H94.4096V40.9049H94.124C93.3726 40.9049 92.985 40.5441 92.985 39.8488V38.7927C92.985 38.2745 92.645 37.94 92.1248 37.94C91.5672 37.94 91.1966 38.2844 91.1966 38.8091V40.9082H90.1902V37.0873ZM95.2392 39.7012V37.9794H94.6102V37.0873H94.9672C95.178 37.0873 95.2936 36.9823 95.2936 36.779V36.0673H96.2456V37.0873H97.1602V37.9794H96.2456V39.5372C96.2456 39.8357 96.4394 40.0161 96.7658 40.0161H97.1602V40.9082H96.6196C95.7118 40.9082 95.2392 40.4884 95.2392 39.7012ZM101.839 39.0059C101.839 37.858 100.924 36.9987 99.717 36.9987C98.51 36.9987 97.5954 37.8613 97.5954 38.9994C97.5954 40.1374 98.51 41 99.734 41C100.696 41 101.475 40.4851 101.777 39.7275H100.686C100.516 39.9734 100.159 40.1538 99.7476 40.1538C99.207 40.1538 98.8024 39.8324 98.6732 39.3372H101.811C101.835 39.2486 101.842 39.1043 101.842 39.0092L101.839 39.0059ZM98.68 38.6222C98.8194 38.1499 99.207 37.8449 99.717 37.8449C100.227 37.8449 100.632 38.1597 100.754 38.6222H98.6766H98.68ZM102.753 37.8875C102.542 37.7531 102.413 37.5202 102.413 37.2578C102.413 36.8905 102.685 36.6347 103.08 36.6347C103.474 36.6347 103.739 36.8741 103.77 37.1889L106.272 37.4743V37.7071C105.837 38.2975 105.592 38.8321 105.592 39.2716C105.592 39.7111 105.834 39.9603 106.252 39.9603H106.415V40.9049H106.16C105.113 40.9049 104.565 40.3342 104.565 39.3929C104.565 39.0256 104.657 38.6451 104.861 38.2614L103.685 38.1105L103.134 40.9049H102.141L102.76 37.8875H102.753ZM103.811 6.54636C105.732 6.54636 107.234 5.13279 107.234 3.27318C107.234 1.41357 105.732 0 103.811 0C101.89 0 100.387 1.41357 100.387 3.27318C100.387 5.13279 101.89 6.54636 103.811 6.54636ZM101.094 24.9654H98.3604C97.2316 24.9654 96.5652 24.3193 96.5652 23.2271V16.6414C96.5652 11.994 93.4338 8.9668 88.7554 8.9668C85.624 8.9668 83.1148 10.2197 81.4454 12.522C80.15 10.3017 77.7292 8.9668 74.6794 8.9668C72.0886 8.9668 69.9602 9.85561 68.3724 11.5939V9.4522H62.9426V24.9654H60.9604C59.8316 24.9654 59.1652 24.3193 59.1652 23.2271V9.4522H53.7354V21.0461C53.7354 23.7125 51.8552 25.4508 49.057 25.4508C46.4254 25.4508 44.671 23.7551 44.671 21.1281V9.4522H39.2344V22.663C39.2344 27.4317 42.4508 30.5409 47.255 30.5409C50.2198 30.5409 52.6032 29.3701 54.2318 27.189C55.109 29.088 56.9892 30.0588 59.8282 30.0588H68.369V18.3042C68.369 15.7591 70.2084 14.0635 72.8808 14.0635C75.3866 14.0635 77.0594 15.7198 77.0594 18.2255V30.0621H82.4892V18.3075C82.4892 15.7624 84.2844 14.0668 86.9602 14.0668C89.636 14.0668 91.1388 15.7231 91.1388 18.2288V24.3685C91.1388 28.127 93.2264 30.0654 97.2792 30.0654H106.531V9.4522H101.101V24.9654H101.094Z" fill="#F8FAFC"/>
</g>
<defs>
<clipPath id="clip0_569_16875">
<rect width="27.2348" height="40.8522" fill="white" transform="translate(0 0.0739136)"/>
</clipPath>
<clipPath id="clip1_569_16875">
<rect width="68" height="41" fill="white" transform="translate(39.2344)"/>
</clipPath>
</defs>
</svg>
