<svg width="200" height="300" viewBox="0 0 200 300" fill="none" xmlns="http://www.w3.org/2000/svg">
<path d="M183.031 44.5914C182.091 43.1914 181.091 41.7713 180.051 40.3913C177.181 36.5412 174.011 32.871 170.631 29.4709C161.552 20.3606 151.022 13.1804 139.333 8.13026C137.683 7.41023 136.003 6.73021 134.333 6.12019C131.803 5.19016 129.234 4.37014 126.644 3.64012C126.504 3.60011 126.364 3.56011 126.224 3.52011C125.784 3.40011 125.344 3.2901 124.904 3.1701C122.984 2.66008 121.054 2.20007 119.094 1.81006C112.974 0.600019 106.775 0 100.605 0C100.405 0 100.205 0 100.005 0C99.445 0 98.8851 0 98.3351 0.0100003C92.5154 0.0700022 86.6857 0.660021 80.916 1.82006C78.2261 2.34007 75.5762 3.0001 72.9564 3.77012C69.1065 4.86015 65.2867 6.1902 61.5869 7.75025C60.297 8.28026 58.9671 8.88028 57.4071 9.62031C53.9073 11.2804 50.4475 13.1904 47.1176 15.2905C39.628 19.9906 32.7984 25.6708 26.8087 32.161C24.1388 35.0211 21.6289 38.0712 19.349 41.2213C18.4591 42.4213 17.5691 43.6914 16.7192 44.9914C14.3493 48.5515 12.1694 52.3417 10.2395 56.2718C8.0296 60.7519 6.13969 65.4621 4.62977 70.2522C4.0998 71.9223 3.61982 73.5923 3.19984 75.2224C1.67992 81.0726 0.699965 87.0928 0.269986 93.103C0.0899955 95.523 0 97.9631 0 100.363V199.646C0 247.078 32.9584 286.929 77.1061 297.349C77.1661 297.369 77.2361 297.379 77.2961 297.399C78.2661 297.629 79.236 297.839 80.206 298.029C80.436 298.079 80.666 298.139 80.906 298.179C86.9857 299.4 93.1354 300 99.265 300C99.515 300 99.755 300 99.995 300C100.115 300 100.235 300 100.355 300C106.605 300.02 112.884 299.43 119.084 298.179C120.854 297.839 122.594 297.419 124.334 296.969C124.614 296.899 124.894 296.819 125.174 296.749C125.834 296.569 126.484 296.389 127.134 296.199C160.352 286.739 187.251 260.338 196.57 225.627C196.91 224.377 197.22 223.127 197.5 221.897C199.16 214.627 200 207.137 200 199.646V100.363C200 80.4426 194.13 61.1519 183.031 44.5914ZM41.6179 47.0815C42.1279 47.4415 42.7279 47.6315 43.3478 47.6315C44.4578 47.6315 45.4777 47.0215 45.9977 46.0315C46.6977 44.7014 46.2677 43.0214 44.9978 42.1213L38.2081 37.2812C41.8079 33.6011 45.7177 30.231 49.8675 27.2009L53.5073 35.1811C53.9973 36.2511 55.0672 36.9312 56.2272 36.9312C56.8672 36.9312 57.4871 36.7312 58.0071 36.3412C59.147 35.5111 59.527 33.9311 58.9071 32.591L54.8873 23.7808C60.007 20.5507 65.4567 17.8506 71.1364 15.7705L69.7265 30.831C69.6465 31.631 69.8865 32.411 70.3965 33.031C70.9065 33.6511 71.6264 34.0311 72.4264 34.1111C74.0763 34.2611 75.5262 33.041 75.6862 31.401L77.3361 13.7704C79.436 13.1904 81.5459 12.6804 83.6958 12.2704C84.2258 12.1604 84.7558 12.0704 85.2957 11.9704L84.7058 13.5704C84.4058 14.3705 84.4358 15.2505 84.7858 16.0305C85.1357 16.8105 85.7757 17.4106 86.5857 17.7106C86.9357 17.8406 87.3156 17.9106 87.7056 17.9106C89.0256 17.9106 90.2355 17.0705 90.7155 15.8105L92.5354 10.9003C95.0253 10.6503 97.5151 10.5103 100.015 10.4903C101.135 10.4903 102.245 10.5403 103.355 10.6003L85.9957 35.1411C85.1257 36.3812 85.2257 38.0212 86.2357 39.0512C86.8157 39.6313 87.5756 39.9613 88.3756 39.9613C89.3455 39.9613 90.2555 39.4912 90.8155 38.6912L110.244 11.2304C112.274 11.5004 114.304 11.8304 116.314 12.2604C119.404 12.8504 122.434 13.6404 125.414 14.5905L107.915 28.1109C107.235 28.6409 106.795 29.4009 106.685 30.251C106.575 31.101 106.805 31.941 107.325 32.621C107.915 33.3811 108.795 33.8411 109.755 33.8711C110.504 33.9111 111.234 33.6611 111.814 33.2111L132.523 17.2005C146.013 22.8807 158.002 32.061 167.352 43.4814L120.164 51.5116C118.434 51.8116 117.254 53.4817 117.544 55.2218C117.804 56.7718 119.134 57.9018 120.704 57.9018C120.894 57.9018 121.074 57.8918 121.244 57.8518L171.731 49.2516C180.411 61.692 186.111 76.2524 187.561 91.5729C187.871 95.733 188.031 99.8932 188.101 104.063L119.314 78.4325C118.464 78.1225 117.524 78.1725 116.714 78.5925C115.914 79.0125 115.314 79.7625 115.084 80.6426C114.674 82.2126 115.604 83.9127 117.194 84.5027L188.151 110.944C188.151 120.824 187.861 130.714 188.021 140.544C188.051 143.675 188.101 146.815 188.161 149.965C188.101 153.125 188.051 156.265 188.021 159.385C187.821 171.465 188.321 183.616 188.101 195.736C181.531 181.676 170.241 169.965 156.122 163.075L105.155 101.313C104.035 99.9432 102.015 99.7532 100.635 100.883C99.975 101.433 99.565 102.213 99.485 103.073C99.405 103.933 99.665 104.763 100.215 105.413L144.063 158.565C138.353 157.035 132.453 156.255 126.494 156.255C113.384 156.255 100.805 160.925 90.8555 169.445L81.4859 114.044C81.3459 113.194 80.886 112.454 80.186 111.954C79.486 111.454 78.6361 111.264 77.7861 111.404C76.0462 111.704 74.8663 113.364 75.1562 115.114L85.2757 174.956C76.3862 185.056 71.5064 197.996 71.5064 211.447C71.5064 236.127 91.5054 256.198 116.094 256.198C136.093 256.198 152.362 239.868 152.362 219.797C152.362 203.406 139.083 190.076 122.754 190.076C109.365 190.076 98.4651 201.006 98.4651 214.457C98.4651 225.547 107.455 234.557 118.494 234.557C127.004 234.557 134.103 228.157 135.013 219.667C135.093 218.967 134.863 218.257 134.383 217.727C133.903 217.187 133.203 216.877 132.483 216.877H131.553C130.273 216.877 129.194 217.857 129.034 219.147C128.394 224.507 123.864 228.547 118.484 228.547C110.744 228.547 104.445 222.227 104.445 214.457C104.445 204.326 112.654 196.086 122.744 196.086C135.773 196.086 146.363 206.727 146.363 219.797C146.363 236.557 132.783 250.188 116.084 250.188C94.7953 250.188 77.4861 232.807 77.4861 211.447C77.4861 200.316 81.116 189.806 87.9856 181.056C89.1456 179.586 90.3855 178.176 91.6754 176.856C100.965 167.445 113.324 162.265 126.484 162.265C135.253 162.265 143.733 164.075 151.672 167.645C153.062 168.265 154.412 168.935 155.692 169.625C172.031 178.426 183.431 193.956 187.151 211.737C182.111 248.778 152.462 280.759 116.284 287.699C110.904 288.849 105.445 289.429 99.975 289.469C94.5053 289.429 89.0456 288.849 83.6658 287.699C46.3977 280.549 16.0592 246.828 12.4094 208.377C12.3794 207.917 12.3594 207.447 12.3294 206.987C30.0485 205.817 35.3782 208.727 45.6677 222.797C49.1975 227.627 52.3774 232.287 55.4472 236.788C71.0564 259.668 83.3858 277.749 114.864 277.749C146.343 277.749 169.852 252.998 169.852 222.567C169.852 197.896 149.853 177.816 125.264 177.816C105.265 177.816 88.9956 194.146 88.9956 214.217C88.9956 230.607 102.285 243.938 118.614 243.938C132.003 243.938 142.903 232.997 142.903 219.557C142.903 208.477 133.913 199.456 122.874 199.456C114.364 199.456 107.255 205.857 106.345 214.347C106.265 215.047 106.495 215.757 106.975 216.277C107.455 216.817 108.155 217.127 108.875 217.127H109.805C111.084 217.127 112.164 216.147 112.324 214.857C112.964 209.497 117.504 205.457 122.884 205.457C130.623 205.457 136.923 211.777 136.923 219.547C136.923 229.677 128.714 237.918 118.624 237.918C105.595 237.918 94.9953 227.277 94.9953 214.207C94.9953 197.446 108.575 183.816 125.274 183.816C146.563 183.816 163.872 201.196 163.872 222.557C163.872 249.668 141.893 271.729 114.874 271.729C87.8556 271.729 75.5762 255.648 60.397 233.387C57.2871 228.827 54.0773 224.117 50.4975 219.237C39.078 203.626 31.6384 199.786 12.0194 200.986C11.4994 187.116 12.1694 173.205 11.9394 159.375C11.9094 156.255 11.8594 153.115 11.7994 149.955C11.8594 146.805 11.9094 143.665 11.9394 140.534C12.0794 132.244 11.8894 123.924 11.8194 115.594L31.8284 98.9631C33.1883 97.8331 33.3783 95.803 32.2484 94.423C31.1184 93.073 29.0885 92.8829 27.7286 94.003L11.8194 107.233C11.8594 102.493 11.9994 97.7631 12.3094 93.043L41.4279 79.6425C42.8679 78.9825 43.6078 77.3325 43.1178 75.8924C42.8379 75.0924 42.2379 74.4324 41.4679 74.1023C40.688 73.7723 39.808 73.7823 39.038 74.1323L13.1293 86.0527C13.6893 82.6026 14.4593 79.1925 15.4392 75.8524L19.149 75.2224C19.999 75.0724 20.739 74.6124 21.2289 73.9023C21.7189 73.2023 21.9089 72.3523 21.7689 71.5123C21.6289 70.6622 21.1689 69.9222 20.469 69.4222C19.769 68.9222 18.9191 68.7322 18.0791 68.8722L17.7691 68.9222C18.6991 66.4921 19.739 64.102 20.869 61.762L37.2081 63.302C38.1681 63.392 39.078 63.022 39.708 62.322C40.288 61.682 40.558 60.8619 40.468 59.9919C40.328 58.5719 39.158 57.4418 37.6781 57.3018L23.9288 56.0018C26.8587 50.9216 30.2685 46.1215 34.0883 41.6813L41.5879 47.0215L41.6179 47.0815ZM69.7165 88.5228C70.3765 88.5228 71.0265 88.4928 71.6864 88.4428C83.7958 87.4928 93.6553 77.6125 94.6453 65.4721C95.2452 58.0918 92.5954 50.8616 87.3956 45.6314C82.1959 40.4013 74.9963 37.7612 67.6466 38.3312C55.5472 39.3012 45.6977 49.1916 44.7278 61.3319C44.1478 68.7022 46.7877 75.9224 51.9774 81.1326C56.6972 85.8827 63.0769 88.5128 69.7165 88.5128V88.5228ZM50.7275 61.4219C51.6274 52.4417 58.7771 45.2714 67.7266 44.3714C68.3766 44.3014 69.0266 44.2714 69.6665 44.2714C74.7163 44.2714 79.546 46.2615 83.1459 49.8716C87.2056 53.9517 89.2155 59.5919 88.6456 65.3521C87.7556 74.3424 80.596 81.5226 71.6364 82.4226C65.8967 82.9926 60.277 80.9826 56.2172 76.9124C52.1574 72.8323 50.1575 67.1921 50.7375 61.4319L50.7275 61.4219ZM69.6465 95.953L64.8568 147.145C64.7068 148.695 63.4268 149.865 61.8769 149.865C61.7869 149.865 61.6969 149.865 61.5969 149.855C59.947 149.695 58.7371 148.235 58.8971 146.585L63.6868 95.393C63.8368 93.743 65.2967 92.5329 66.9467 92.6829C68.5866 92.8429 69.8065 94.303 69.6465 95.953ZM18.8991 130.014L48.5476 88.0828C49.0076 87.4328 49.6975 86.9928 50.4875 86.8628C51.2774 86.7327 52.0674 86.9128 52.7174 87.3728C54.0673 88.3328 54.3773 90.2129 53.4273 91.5629L23.7788 133.484C23.2188 134.274 22.3089 134.744 21.3389 134.744C20.719 134.744 20.119 134.554 19.609 134.194C18.2591 133.234 17.9491 131.354 18.8991 130.004V130.014ZM96.1152 50.5316C95.8052 49.1616 96.5352 47.7315 97.8651 47.1215L144.353 25.7308C145.123 25.3808 146.003 25.3708 146.783 25.7008C147.563 26.0308 148.163 26.6908 148.433 27.4909C148.923 28.9309 148.183 30.571 146.743 31.241L100.275 52.6217C99.875 52.8017 99.455 52.8917 99.0251 52.8917C97.6151 52.8917 96.4152 51.9216 96.0952 50.5316H96.1152ZM102.115 63.432L153.032 68.2322C154.512 68.3722 155.682 69.5022 155.822 70.9222C155.902 71.7923 155.642 72.6223 155.062 73.2523C154.492 73.8823 153.682 74.2424 152.842 74.2424C152.752 74.2424 152.662 74.2424 152.562 74.2324L101.675 69.4322C100.095 69.2822 98.8451 67.9722 98.8351 66.4421C98.8351 65.5921 99.1851 64.7821 99.805 64.212C100.425 63.642 101.265 63.362 102.105 63.432H102.115ZM95.3752 79.2225C96.1952 79.0425 97.0652 79.2225 97.7551 79.7025L139.453 109.403C140.723 110.313 141.153 111.994 140.443 113.314C139.923 114.304 138.903 114.914 137.793 114.914C137.173 114.914 136.573 114.724 136.063 114.354L94.3753 84.6627C93.0854 83.7427 92.6654 81.9926 93.4153 80.6626C93.8353 79.9225 94.5453 79.3925 95.3752 79.2125V79.2225ZM85.8657 91.6029L107.165 138.214C107.865 139.744 107.265 141.564 105.835 142.275C105.415 142.485 104.965 142.585 104.505 142.585C103.335 142.585 102.265 141.895 101.785 140.834L80.476 94.193C79.846 92.8129 80.276 91.1629 81.4759 90.3529C82.2159 89.8528 83.1159 89.7128 83.9658 89.9529C84.8158 90.1929 85.5057 90.7929 85.8757 91.5929L85.8657 91.6029ZM54.6273 113.324L26.0987 190.456C25.6287 191.716 24.4288 192.556 23.0888 192.556C22.7089 192.556 22.3289 192.486 21.9689 192.356C20.309 191.736 19.469 189.886 20.079 188.216L48.6576 110.974C48.9676 110.123 49.6275 109.443 50.4675 109.103C51.3074 108.763 52.2574 108.803 53.0773 109.203C54.5373 109.913 55.2172 111.734 54.6273 113.324Z" fill="#0F172A"/>
</svg>
