<svg width="200" height="94" viewBox="0 0 200 94" fill="none" xmlns="http://www.w3.org/2000/svg">
<path d="M189.93 19.988C195.58 19.988 200 15.6719 200 9.99398C200 4.31604 195.58 0 189.93 0C184.28 0 179.86 4.31604 179.86 9.99398C179.86 15.6719 184.28 19.988 189.93 19.988ZM181.94 76.2267H173.9C170.58 76.2267 168.62 74.2539 168.62 70.9192V50.8111C168.62 36.6212 159.41 27.3783 145.65 27.3783C136.44 27.3783 129.06 31.2037 124.15 38.2335C120.34 31.454 113.22 27.3783 104.25 27.3783C96.63 27.3783 90.37 30.0921 85.7 35.3995V28.8604H69.73V76.2267H63.9C60.58 76.2267 58.62 74.2539 58.62 70.9192V28.8604H42.65V64.2599C42.65 72.4013 37.12 77.7087 28.89 77.7087C21.15 77.7087 15.99 72.5315 15.99 64.5103V28.8604H0V69.1968C0 83.7572 9.46 93.2505 23.59 93.2505C32.31 93.2505 39.32 89.6755 44.11 83.0162C46.69 88.8143 52.22 91.7784 60.57 91.7784H85.69V55.8882C85.69 48.1173 91.1 42.9401 98.96 42.9401C106.33 42.9401 111.25 47.9972 111.25 55.6479V91.7884H127.22V55.8982C127.22 48.1273 132.5 42.9501 140.37 42.9501C148.24 42.9501 152.66 48.0072 152.66 55.6579V74.4041C152.66 85.8802 158.8 91.7985 170.72 91.7985H197.93V28.8604H181.96V76.2267H181.94Z" fill="#0F172A"/>
</svg>
