<svg width="902" height="68" viewBox="0 0 902 68" fill="none" xmlns="http://www.w3.org/2000/svg">
<path d="M0 43.0785V5.51831H13.6309V42.9005C13.6309 49.6649 18.5556 54.7382 25.3271 54.7382C32.0986 54.7382 37.0233 49.6649 37.0233 42.9005V5.51831H50.6542V43.0785C50.6542 57.3194 39.6616 68 25.3271 68C10.9927 68 0 57.3194 0 43.0785Z" fill="black"/>
<path d="M58.2168 21.5393H71.0562V25.8115C74.398 22.2513 78.7071 20.4712 83.8077 20.4712C90.0516 20.4712 94.9763 23.2304 97.7025 27.8586C101.308 23.0523 106.409 20.4712 112.828 20.4712C122.59 20.4712 129.098 27.1466 129.098 37.2932V50.733C129.098 53.0471 130.417 54.3822 132.703 54.3822H133.583V66.9319H129.977C120.919 66.9319 116.258 62.3927 116.258 53.5811V41.2094C116.258 36.3141 113.18 33.0209 108.519 33.0209C103.507 33.0209 100.077 36.4031 100.077 41.3874V66.9319H87.2375V41.2094C87.2375 36.3141 84.1595 33.0209 79.4986 33.0209C74.486 33.0209 71.0562 36.4031 71.0562 41.3874V66.9319H58.2168V21.5393Z" fill="black"/>
<path d="M136.045 7.92147C136.045 3.3822 139.475 0 143.96 0C148.445 0 151.962 3.3822 151.962 7.92147C151.962 12.4607 148.533 15.9319 143.96 15.9319C139.387 15.9319 136.045 12.5497 136.045 7.92147ZM137.54 21.5393H150.379V66.9319H137.54V21.5393Z" fill="black"/>
<path d="M171.486 5.51855H186.524L199.1 47.796L211.676 5.51855H223.987L236.739 47.796L244.214 22.5186C246.324 14.9531 247.468 10.3248 246.588 5.51855H260.483C261.45 10.9479 260.131 16.8222 256.877 26.3458L243.334 66.9322H229.704L217.656 26.8798L205.783 66.9322H192.065L171.486 5.51855Z" fill="black"/>
<path d="M259.076 44.2356C259.076 30.7068 269.453 20.4712 283.26 20.4712C297.067 20.4712 307.444 30.6178 307.444 44.4136C307.444 45.5707 307.356 47.3508 307.092 48.4188H272.795C274.202 53.5811 278.247 56.8743 283.612 56.8743C287.833 56.8743 291.351 55.0052 293.022 52.6021H306.74C303.399 61.7696 294.429 68 283.348 68C269.453 68 259.076 57.7644 259.076 44.2356ZM272.883 39.7853H293.725C292.318 34.801 288.361 31.5968 283.26 31.5968C278.159 31.5968 274.29 34.801 272.883 39.7853Z" fill="black"/>
<path d="M309.818 56.5185C312.545 55.4504 315.183 54.0263 317.557 52.4243C313.072 45.5708 310.61 36.6703 310.61 26.6127C310.61 10.7698 317.909 1.78027 328.902 1.78027C339.894 1.78027 346.402 9.87975 346.402 23.6756C346.402 34.0002 342.533 44.0578 335.937 52.1572C338.487 53.5813 341.301 54.3824 344.379 54.3824H347.193V66.9321H343.676C336.904 66.9321 330.924 64.885 325.912 61.3248C322.482 63.6389 318.788 65.508 314.743 66.9321L309.818 56.5185ZM327.319 42.4557C331.012 36.9373 333.123 30.44 333.123 23.6756C333.123 17.6232 331.452 14.33 328.638 14.33C325.824 14.33 323.801 17.8902 323.801 25.6337C323.801 31.953 325.032 37.7384 327.319 42.4557Z" fill="black"/>
<path d="M349.654 56.5185C352.38 55.4504 355.019 54.0263 357.393 52.4243C352.908 45.5708 350.446 36.6703 350.446 26.6127C350.446 10.7698 357.745 1.78027 368.738 1.78027C379.73 1.78027 386.238 9.87975 386.238 23.6756C386.238 34.0002 382.369 44.0578 375.773 52.1572C378.323 53.5813 381.137 54.3824 384.215 54.3824H387.029V66.9321H383.512C376.74 66.9321 370.76 64.885 365.748 61.3248C362.318 63.6389 358.624 65.508 354.579 66.9321L349.654 56.5185ZM367.155 42.4557C370.848 36.9373 372.959 30.44 372.959 23.6756C372.959 17.6232 371.288 14.33 368.474 14.33C365.66 14.33 363.637 17.8902 363.637 25.6337C363.637 31.953 364.868 37.7384 367.155 42.4557Z" fill="black"/>
<path d="M392.131 21.5393H404.97V25.9895C408.488 22.3403 413.061 20.4712 418.601 20.4712C428.89 20.4712 435.75 27.3246 435.75 37.7382V50.733C435.75 53.0471 437.069 54.3822 439.355 54.3822H440.235V66.9319H436.629C427.571 66.9319 422.91 62.3927 422.91 53.5811V42.0995C422.91 36.5811 419.481 33.0209 414.292 33.0209C408.752 33.0209 404.97 36.6701 404.97 42.2775V66.9319H392.131V21.5393Z" fill="black"/>
<path d="M441.553 44.2356C441.553 30.7068 451.93 20.4712 465.737 20.4712C479.543 20.4712 489.92 30.6178 489.92 44.4136C489.92 45.5707 489.833 47.3508 489.569 48.4188H455.272C456.679 53.5811 460.724 56.8743 466.088 56.8743C470.31 56.8743 473.827 55.0052 475.498 52.6021H489.217C485.875 61.7696 476.905 68 465.825 68C451.93 68 441.553 57.7644 441.553 44.2356ZM455.36 39.7853H476.202C474.795 34.801 470.837 31.5968 465.737 31.5968C460.636 31.5968 456.767 34.801 455.36 39.7853Z" fill="black"/>
<path d="M501.97 61.4134L499.683 66.9317H486.492L505.224 21.5391H519.91C521.229 33.1987 537.146 32.7537 537.146 49.3087C537.146 60.3454 530.199 67.9998 518.503 67.9998C511.819 67.9998 505.927 65.4186 501.97 61.4134ZM512.347 35.2459L506.191 50.6438C508.302 53.5809 511.907 55.4501 516.04 55.4501C520.701 55.4501 523.955 52.9579 523.955 49.0417C523.955 43.5234 516.304 41.5652 512.347 35.2459Z" fill="black"/>
<path d="M550.073 61.4137L547.787 66.932H534.596L553.327 21.5393H568.013C569.333 33.199 585.25 32.754 585.25 49.3089C585.25 60.3456 578.303 68 566.606 68C559.923 68 554.031 65.4189 550.073 61.4137ZM560.45 35.2461L554.295 50.644C556.405 53.5812 560.011 55.4503 564.144 55.4503C568.805 55.4503 572.059 52.9582 572.059 49.0419C572.059 43.5236 564.408 41.5655 560.45 35.2461Z" fill="black"/>
<path d="M604.582 36.2251C604.582 18.157 618.389 4.4502 636.681 4.4502C652.334 4.4502 664.822 14.5968 667.548 28.9266H653.038C650.751 22.2512 644.42 17.712 636.681 17.712C626.392 17.712 618.565 25.6334 618.565 36.2251C618.565 46.8167 626.392 54.7382 636.681 54.7382C644.42 54.7382 650.751 50.1989 653.038 43.5235H667.548C664.822 57.8533 652.334 67.9999 636.681 67.9999C618.389 67.9999 604.582 54.2931 604.582 36.2251Z" fill="black"/>
<path d="M670.627 44.2356C670.627 30.7068 681.004 20.4712 694.811 20.4712C708.618 20.4712 718.995 30.6178 718.995 44.4136C718.995 45.5707 718.907 47.3508 718.643 48.4188H684.346C685.753 53.5811 689.798 56.8743 695.163 56.8743C699.384 56.8743 702.901 55.0052 704.572 52.6021H718.291C714.949 61.7696 705.979 68 694.899 68C681.004 68 670.627 57.7644 670.627 44.2356ZM684.434 39.7853H705.276C703.869 34.801 699.911 31.5968 694.811 31.5968C689.71 31.5968 685.841 34.801 684.434 39.7853Z" fill="black"/>
<path d="M724.182 21.5393H737.021V25.9895C740.539 22.3403 745.112 20.4712 750.652 20.4712C760.941 20.4712 767.801 27.3246 767.801 37.7382V50.733C767.801 53.0471 769.12 54.3822 771.406 54.3822H772.286V66.9319H768.68C759.622 66.9319 754.961 62.3927 754.961 53.5811V42.0995C754.961 36.5811 751.531 33.0209 746.343 33.0209C740.803 33.0209 737.021 36.6701 737.021 42.2775V66.9319H724.182V21.5393Z" fill="black"/>
<path d="M778.883 52.1573V33.3772H772.199V21.5395H775.893C778.355 21.5395 779.586 20.2934 779.586 17.8013V9.61279H791.722V21.5395H801.484V33.3772H791.722V50.0212C791.722 53.2254 793.657 55.0945 796.999 55.0945H801.484V66.9322H795.064C784.423 66.9322 778.883 61.8589 778.883 52.1573Z" fill="black"/>
<path d="M804.121 44.2356C804.121 30.7068 814.498 20.4712 828.305 20.4712C842.112 20.4712 852.489 30.6178 852.489 44.4136C852.489 45.5707 852.401 47.3508 852.137 48.4188H817.84C819.247 53.5811 823.293 56.8743 828.657 56.8743C832.878 56.8743 836.396 55.0052 838.067 52.6021H851.786C848.444 61.7696 839.474 68 828.393 68C814.498 68 804.121 57.7644 804.121 44.2356ZM817.928 39.7853H838.77C837.363 34.801 833.406 31.5968 828.305 31.5968C823.205 31.5968 819.335 34.801 817.928 39.7853Z" fill="black"/>
<path d="M859.965 31.9527C857.503 30.2616 856.008 27.2354 856.008 23.9422C856.008 19.136 859.349 15.8428 864.362 15.8428C869.111 15.8428 872.365 18.869 872.892 22.8742L900.594 26.0784V29.1936C895.757 35.958 893.207 41.8323 893.207 46.8166C893.207 51.8009 895.581 54.382 900.066 54.382H902.001V66.9318H898.923C886.435 66.9318 880.016 59.9894 880.016 48.4187C880.016 44.5025 880.807 40.5862 882.654 36.581L871.661 35.0679L865.769 66.9318H853.105L859.965 31.9527Z" fill="black"/>
</svg>
