<svg width="176" height="347" viewBox="0 0 176 347" fill="none" xmlns="http://www.w3.org/2000/svg">
<path d="M167.139 282.414C172.111 282.414 176 278.61 176 273.605C176 268.6 172.111 264.796 167.139 264.796C162.167 264.796 158.278 268.6 158.278 273.605C158.278 278.61 162.167 282.414 167.139 282.414ZM160.108 331.994H153.033C150.112 331.994 148.387 330.256 148.387 327.316V309.592C148.387 297.084 140.283 288.937 128.175 288.937C120.07 288.937 113.576 292.309 109.256 298.505C105.903 292.53 99.6377 288.937 91.7445 288.937C85.0393 288.937 79.5307 291.329 75.4214 296.007V290.244H61.3685V331.994H56.2384C53.3169 331.994 51.5922 330.256 51.5922 327.316V290.244H37.5394V321.446C37.5394 328.623 32.6732 333.301 25.4312 333.301C18.6204 333.301 14.0798 328.737 14.0798 321.667V290.244H0.0093745V325.798C0.0093745 338.623 8.33373 347 20.7675 347C28.4407 347 34.6091 343.849 38.8241 337.979C41.0944 343.09 45.9605 345.702 53.3081 345.702H75.4126V314.067C75.4126 307.218 80.1731 302.654 87.0895 302.654C93.5748 302.654 97.9042 307.112 97.9042 313.855V345.711H111.957V314.076C111.957 307.226 116.603 302.663 123.528 302.663C130.454 302.663 134.343 307.12 134.343 313.864V330.388C134.343 340.503 139.746 345.72 150.235 345.72H174.178V290.27H160.126V332.021L160.108 331.994Z" fill="#0F172A"/>
<path d="M161.067 39.3588C160.239 38.123 159.36 36.8696 158.444 35.6515C155.919 32.2532 153.129 29.0137 150.155 26.0126C142.165 17.9714 132.899 11.6337 122.613 7.1762C121.161 6.54067 119.682 5.94045 118.213 5.40201C115.987 4.58112 113.725 3.85732 111.446 3.21296C111.323 3.17765 111.2 3.14235 111.076 3.10704C110.689 3.00112 110.302 2.90402 109.915 2.7981C108.225 2.34793 106.527 1.9419 104.802 1.59765C99.4171 0.529609 93.9614 0 88.5321 0C88.3561 0 88.1801 0 88.0041 0C87.5113 0 87.0186 0 86.5346 0.00882681C81.4133 0.0617877 76.2831 0.58257 71.2058 1.60648C68.8387 2.06547 66.5069 2.64804 64.2014 3.32771C60.8136 4.28983 57.4521 5.4638 54.1963 6.84078C53.0612 7.3086 51.8908 7.83821 50.5181 8.4914C47.4383 9.95665 44.3936 11.6426 41.4634 13.4962C34.8725 17.6448 28.8625 22.6584 23.5915 28.387C21.2421 30.9115 19.0334 33.6037 17.0271 36.3841C16.2439 37.4433 15.4608 38.5644 14.7128 39.7118C12.6273 42.8542 10.709 46.1996 9.01072 49.6685C7.06602 53.6229 5.40291 57.7803 4.07418 62.0084C3.60781 63.4825 3.18543 64.9565 2.81585 66.3953C1.47832 71.559 0.615967 76.8727 0.237587 82.1776C0.0791958 84.3137 0 86.4675 0 88.5859V176.219C0 218.084 29.0033 253.259 67.8532 262.457C67.906 262.474 67.9676 262.483 68.0204 262.501C68.8739 262.704 69.7275 262.889 70.581 263.057C70.7834 263.101 70.9858 263.154 71.197 263.189C76.5471 264.266 81.9588 264.796 87.3529 264.796C87.5729 264.796 87.7841 264.796 87.9953 264.796C88.1009 264.796 88.2065 264.796 88.3121 264.796C93.8118 264.813 99.3379 264.293 104.794 263.189C106.351 262.889 107.882 262.518 109.413 262.121C109.66 262.059 109.906 261.989 110.153 261.927C110.733 261.768 111.305 261.609 111.877 261.441C141.109 253.091 164.78 229.788 172.981 199.151C173.28 198.047 173.553 196.944 173.8 195.858C175.26 189.441 175.999 182.83 175.999 176.219V88.5859C175.999 71.0029 170.834 53.976 161.067 39.3588ZM36.6236 41.5566C37.0724 41.8744 37.6004 42.0421 38.146 42.0421C39.1227 42.0421 40.0203 41.5037 40.4778 40.6298C41.0938 39.4559 40.7154 37.973 39.5979 37.1785L33.623 32.9064C36.7908 29.6581 40.2315 26.6835 43.8833 24.0089L47.0863 31.0527C47.5175 31.9972 48.459 32.5974 49.4798 32.5974C50.0429 32.5974 50.5885 32.4209 51.0461 32.0766C52.0492 31.344 52.3836 29.9494 51.838 28.7666L48.3006 20.9902C52.806 18.1391 57.6017 15.7559 62.5999 13.9199L61.3591 27.2131C61.2887 27.9192 61.4999 28.6077 61.9487 29.155C62.3975 29.7022 63.031 30.0377 63.735 30.1083C65.1869 30.2407 66.4629 29.1638 66.6037 27.7162L68.0556 12.1545C69.9035 11.6426 71.7602 11.1924 73.6521 10.8305C74.1185 10.7334 74.5848 10.654 75.06 10.5657L74.5408 11.978C74.2768 12.6841 74.3032 13.4609 74.6112 14.1494C74.9192 14.8379 75.4824 15.3675 76.1951 15.6323C76.5031 15.747 76.8375 15.8088 77.1807 15.8088C78.3422 15.8088 79.407 15.0674 79.8293 13.9552L81.4309 9.62123C83.6219 9.40056 85.813 9.27698 88.0129 9.25933C88.9985 9.25933 89.9752 9.30346 90.952 9.35642L75.676 31.0174C74.9104 32.112 74.9984 33.5596 75.8872 34.4687C76.3975 34.9807 77.0663 35.272 77.7703 35.272C78.6238 35.272 79.4246 34.8571 79.9173 34.1509L97.0148 9.91251C98.8011 10.1508 100.587 10.4421 102.356 10.8217C105.075 11.3425 107.741 12.0398 110.364 12.8783L94.9645 24.8122C94.3662 25.28 93.979 25.9508 93.8822 26.7011C93.7854 27.4514 93.9878 28.1928 94.4454 28.7931C94.9645 29.4639 95.7389 29.8699 96.5837 29.8964C97.2436 29.9317 97.886 29.7111 98.3964 29.3139L116.62 15.1821C128.491 20.1958 139.041 28.2988 147.269 38.379L105.744 45.4669C104.222 45.7317 103.183 47.2058 103.438 48.7417C103.667 50.1098 104.838 51.1073 106.219 51.1073C106.386 51.1073 106.545 51.0984 106.694 51.0631L151.123 43.4721C158.761 54.4526 163.777 67.3045 165.053 80.8271C165.326 84.4991 165.466 88.1711 165.528 91.8518L104.996 69.2287C104.248 68.9551 103.421 68.9992 102.708 69.3699C102.004 69.7407 101.476 70.4027 101.274 71.1794C100.913 72.5652 101.731 74.0658 103.131 74.5866L165.572 97.9247C165.572 106.646 165.317 115.375 165.458 124.052C165.484 126.815 165.528 129.586 165.581 132.367C165.528 135.156 165.484 137.928 165.458 140.682C165.282 151.345 165.722 162.069 165.528 172.767C159.747 160.357 149.812 150.021 137.387 143.939L92.5359 89.4245C91.5503 88.2152 89.7728 88.0475 88.5585 89.0449C87.9777 89.5304 87.6169 90.2189 87.5465 90.978C87.4761 91.7371 87.7049 92.4697 88.1889 93.0435L126.775 139.958C121.75 138.607 116.559 137.919 111.314 137.919C99.7779 137.919 88.7081 142.041 79.9525 149.562L71.7074 100.661C71.5842 99.9107 71.1794 99.2575 70.5634 98.8162C69.9475 98.3748 69.1995 98.2071 68.4516 98.3307C66.9204 98.5955 65.8821 100.061 66.1373 101.605L75.0424 154.425C67.2196 163.34 62.9254 174.762 62.9254 186.634C62.9254 208.419 80.5245 226.134 102.163 226.134C119.762 226.134 134.078 211.72 134.078 194.005C134.078 179.537 122.393 167.771 108.023 167.771C96.2405 167.771 86.649 177.419 86.649 189.291C86.649 199.08 94.5598 207.033 104.274 207.033C111.763 207.033 118.011 201.384 118.811 193.89C118.882 193.272 118.679 192.645 118.257 192.177C117.835 191.701 117.219 191.427 116.585 191.427H115.767C114.64 191.427 113.69 192.292 113.549 193.431C112.986 198.162 109 201.728 104.266 201.728C97.4548 201.728 91.9111 196.149 91.9111 189.291C91.9111 180.349 99.1355 173.076 108.014 173.076C119.48 173.076 128.799 182.468 128.799 194.005C128.799 208.798 116.849 220.829 102.154 220.829C83.4196 220.829 68.1876 205.488 68.1876 186.634C68.1876 176.81 71.3818 167.533 77.4271 159.809C78.4478 158.512 79.539 157.267 80.6741 156.102C88.8489 147.796 99.7251 143.224 111.305 143.224C119.022 143.224 126.484 144.822 133.471 147.973C134.694 148.52 135.882 149.111 137.009 149.72C151.387 157.488 161.419 171.196 164.692 186.89C160.257 219.585 134.166 247.813 102.33 253.939C97.5956 254.954 92.7911 255.466 87.9777 255.501C83.1644 255.466 78.3598 254.954 73.6257 253.939C40.8298 247.627 14.132 217.863 10.9202 183.924C10.8938 183.518 10.8762 183.103 10.8498 182.697C26.4426 181.665 31.1327 184.233 40.1875 196.653C43.2937 200.916 46.0919 205.029 48.7934 209.001C62.5295 229.197 73.3793 245.156 101.08 245.156C128.781 245.156 149.469 223.31 149.469 196.45C149.469 174.674 131.87 156.95 110.232 156.95C92.6327 156.95 78.3158 171.364 78.3158 189.079C78.3158 203.546 90.0104 215.312 104.38 215.312C116.163 215.312 125.754 205.656 125.754 193.793C125.754 184.013 117.843 176.051 108.129 176.051C100.64 176.051 94.3838 181.7 93.583 189.194C93.5126 189.812 93.715 190.439 94.1374 190.898C94.5598 191.374 95.1757 191.648 95.8093 191.648H96.6277C97.754 191.648 98.7043 190.783 98.8451 189.644C99.4083 184.913 103.403 181.347 108.137 181.347C114.948 181.347 120.492 186.925 120.492 193.784C120.492 202.725 113.268 209.999 104.389 209.999C92.9231 209.999 83.5955 200.607 83.5955 189.07C83.5955 174.277 95.5453 162.246 110.241 162.246C128.975 162.246 144.207 177.587 144.207 196.441C144.207 220.37 124.865 239.842 101.089 239.842C77.3127 239.842 66.5069 225.649 53.1492 206C50.4125 201.975 47.5879 197.818 44.4376 193.51C34.3886 179.732 27.8417 176.342 10.577 177.401C10.1195 165.159 10.709 152.88 10.5066 140.673C10.4802 137.919 10.4362 135.147 10.3834 132.358C10.4362 129.578 10.4802 126.806 10.5066 124.043C10.6298 116.726 10.4626 109.382 10.401 102.029L28.0089 87.3502C29.2056 86.3527 29.3728 84.5609 28.3785 83.3428C27.3841 82.1512 25.5978 81.9835 24.4011 82.9721L10.401 94.6499C10.4362 90.466 10.5594 86.2909 10.8322 82.1247L36.4565 70.2968C37.7236 69.7142 38.3748 68.2578 37.9436 66.9867C37.6972 66.2806 37.1692 65.698 36.4917 65.4067C35.8053 65.1154 35.0309 65.1242 34.3534 65.4332L11.5538 75.9547C12.0466 72.9095 12.7241 69.8995 13.5865 66.9514L16.8511 66.3953C17.5991 66.2629 18.2502 65.8569 18.6814 65.2302C19.1126 64.6123 19.2798 63.862 19.1566 63.1206C19.0334 62.3703 18.6286 61.7171 18.0126 61.2757C17.3967 60.8344 16.6487 60.6667 15.9096 60.7903L15.6368 60.8344C16.4551 58.6895 17.3703 56.5799 18.3646 54.5144L32.7431 55.8737C33.5878 55.9532 34.3886 55.6266 34.9429 55.0087C35.4533 54.4438 35.6909 53.72 35.6117 52.9521C35.4885 51.6987 34.459 50.7012 33.1566 50.5776L21.0573 49.4302C23.6355 44.9461 26.6362 40.7093 29.9976 36.7902L36.5972 41.5037L36.6236 41.5566ZM61.3503 78.135C61.9311 78.135 62.5031 78.1085 63.0838 78.0644C73.7401 77.2258 82.4164 68.5049 83.2876 57.7892C83.8155 51.275 81.4837 44.8932 76.9079 40.2768C72.3321 35.6603 65.9965 33.3301 59.5288 33.8332C48.8814 34.6894 40.2139 43.4191 39.3603 54.1349C38.8499 60.6402 41.173 67.0132 45.74 71.612C49.8933 75.8047 55.5074 78.1261 61.3503 78.1261V78.135ZM44.64 54.2143C45.432 46.2878 51.7236 39.959 59.5992 39.1646C60.1712 39.1028 60.7432 39.0763 61.3063 39.0763C65.7501 39.0763 70.0003 40.8328 73.1681 44.0193C76.7407 47.6207 78.5094 52.599 78.0078 57.6832C77.2247 65.6185 70.9242 71.9562 63.0398 72.7506C57.9889 73.2537 53.0436 71.4796 49.471 67.887C45.8984 64.2857 44.1384 59.3074 44.6488 54.2231L44.64 54.2143ZM61.2887 84.6933L57.0738 129.878C56.9418 131.246 55.8154 132.279 54.4515 132.279C54.3723 132.279 54.2931 132.279 54.2051 132.27C52.7532 132.129 51.6884 130.84 51.8292 129.383L56.0442 84.199C56.1762 82.7426 57.4609 81.6745 58.9129 81.8069C60.356 81.9481 61.4295 83.2369 61.2887 84.6933ZM16.6311 114.757L42.7217 77.7466C43.1265 77.1728 43.7337 76.7845 44.4288 76.6697C45.124 76.555 45.8192 76.7139 46.3911 77.1199C47.5791 77.9673 47.8518 79.6267 47.0159 80.8183L20.9253 117.82C20.4325 118.518 19.6318 118.933 18.7782 118.933C18.2326 118.933 17.7047 118.765 17.2559 118.447C16.0679 117.6 15.7952 115.94 16.6311 114.749V114.757ZM84.5811 44.6019C84.3083 43.3926 84.9507 42.1304 86.121 41.592L127.03 22.7114C127.708 22.4025 128.482 22.3936 129.168 22.6849C129.855 22.9762 130.383 23.5588 130.62 24.2649C131.051 25.536 130.4 26.9836 129.133 27.575L88.2417 46.4467C87.8897 46.6056 87.5201 46.685 87.1418 46.685C85.901 46.685 84.8451 45.8288 84.5635 44.6019H84.5811ZM89.8608 55.9885L134.668 60.2254C135.97 60.3489 137 61.3464 137.123 62.5998C137.193 63.3677 136.965 64.1003 136.454 64.6564C135.953 65.2125 135.24 65.5303 134.501 65.5303C134.422 65.5303 134.342 65.5303 134.254 65.5215L89.4736 61.2846C88.0833 61.1522 86.9834 59.9959 86.9746 58.6454C86.9746 57.8951 87.2826 57.1801 87.8281 56.677C88.3737 56.1738 89.1129 55.9267 89.852 55.9885H89.8608ZM83.9299 69.926C84.6515 69.7672 85.417 69.926 86.0242 70.3497L122.718 96.5654C123.836 97.3686 124.214 98.8515 123.589 100.017C123.132 100.89 122.234 101.429 121.258 101.429C120.712 101.429 120.184 101.261 119.735 100.935L83.05 74.7278C81.9148 73.9158 81.5453 72.3711 82.2052 71.1971C82.5748 70.5439 83.1996 70.0761 83.9299 69.9172V69.926ZM75.5616 80.8536L94.3046 121.995C94.9205 123.346 94.3926 124.952 93.1342 125.579C92.7647 125.764 92.3687 125.853 91.9639 125.853C90.9344 125.853 89.9928 125.244 89.5704 124.308L70.8186 83.1398C70.2643 81.9217 70.6426 80.4652 71.6986 79.7503C72.3497 79.3089 73.1417 79.1854 73.8897 79.3972C74.6376 79.609 75.2448 80.1387 75.5704 80.8448L75.5616 80.8536ZM48.0718 100.025L22.9668 168.107C22.5532 169.219 21.4973 169.96 20.3181 169.96C19.9837 169.96 19.6494 169.899 19.3326 169.784C17.8718 169.237 17.1327 167.604 17.6695 166.129L42.8185 97.9512C43.0913 97.2009 43.6721 96.6007 44.4112 96.3005C45.1504 96.0004 45.9863 96.0357 46.7079 96.3888C47.9926 97.0155 48.591 98.622 48.0718 100.025Z" fill="#0F172A"/>
</svg>
